<mxfile host="app.diagrams.net" modified="2022-06-03T07:53:17.694Z" agent="5.0 (Windows NT 10.0; Win64; x64) AppleWebKit/537.36 (KHTML, like Gecko) Chrome/102.0.5005.63 Safari/537.36 Edg/102.0.1245.30" etag="r9mHpX7AxAFbhycp5dm9" version="18.1.3" type="github">
  <diagram id="C5RBs43oDa-KdzZeNtuy" name="Page-1">
    <mxGraphModel dx="1778" dy="1143" grid="1" gridSize="10" guides="1" tooltips="1" connect="1" arrows="1" fold="1" page="1" pageScale="1" pageWidth="827" pageHeight="1169" math="0" shadow="0">
      <root>
        <mxCell id="WIyWlLk6GJQsqaUBKTNV-0" />
        <mxCell id="WIyWlLk6GJQsqaUBKTNV-1" parent="WIyWlLk6GJQsqaUBKTNV-0" />
        <mxCell id="KY_1HDdjG_0bhDGDs3J_-4" style="edgeStyle=orthogonalEdgeStyle;rounded=0;orthogonalLoop=1;jettySize=auto;html=1;exitX=0.5;exitY=1;exitDx=0;exitDy=0;entryX=0.5;entryY=0;entryDx=0;entryDy=0;" edge="1" parent="WIyWlLk6GJQsqaUBKTNV-1" source="KY_1HDdjG_0bhDGDs3J_-0" target="KY_1HDdjG_0bhDGDs3J_-1">
          <mxGeometry relative="1" as="geometry" />
        </mxCell>
        <mxCell id="KY_1HDdjG_0bhDGDs3J_-0" value="Start" style="ellipse;whiteSpace=wrap;html=1;" vertex="1" parent="WIyWlLk6GJQsqaUBKTNV-1">
          <mxGeometry x="62.5" y="30" width="70" height="60" as="geometry" />
        </mxCell>
        <mxCell id="KY_1HDdjG_0bhDGDs3J_-5" style="edgeStyle=orthogonalEdgeStyle;rounded=0;orthogonalLoop=1;jettySize=auto;html=1;exitX=0.5;exitY=1;exitDx=0;exitDy=0;entryX=0.5;entryY=0;entryDx=0;entryDy=0;" edge="1" parent="WIyWlLk6GJQsqaUBKTNV-1" source="KY_1HDdjG_0bhDGDs3J_-1" target="KY_1HDdjG_0bhDGDs3J_-2">
          <mxGeometry relative="1" as="geometry" />
        </mxCell>
        <mxCell id="KY_1HDdjG_0bhDGDs3J_-1" value="String answer_word" style="shape=parallelogram;perimeter=parallelogramPerimeter;whiteSpace=wrap;html=1;fixedSize=1;" vertex="1" parent="WIyWlLk6GJQsqaUBKTNV-1">
          <mxGeometry x="30" y="120" width="135" height="60" as="geometry" />
        </mxCell>
        <mxCell id="KY_1HDdjG_0bhDGDs3J_-6" style="edgeStyle=orthogonalEdgeStyle;rounded=0;orthogonalLoop=1;jettySize=auto;html=1;exitX=0.5;exitY=1;exitDx=0;exitDy=0;entryX=0.5;entryY=0;entryDx=0;entryDy=0;" edge="1" parent="WIyWlLk6GJQsqaUBKTNV-1" source="KY_1HDdjG_0bhDGDs3J_-2" target="KY_1HDdjG_0bhDGDs3J_-3">
          <mxGeometry relative="1" as="geometry" />
        </mxCell>
        <mxCell id="KY_1HDdjG_0bhDGDs3J_-2" value="system(&quot;cls&quot;)" style="rounded=0;whiteSpace=wrap;html=1;" vertex="1" parent="WIyWlLk6GJQsqaUBKTNV-1">
          <mxGeometry x="37.5" y="210" width="120" height="60" as="geometry" />
        </mxCell>
        <mxCell id="KY_1HDdjG_0bhDGDs3J_-7" style="edgeStyle=orthogonalEdgeStyle;rounded=0;orthogonalLoop=1;jettySize=auto;html=1;exitX=0.5;exitY=1;exitDx=0;exitDy=0;" edge="1" parent="WIyWlLk6GJQsqaUBKTNV-1" source="KY_1HDdjG_0bhDGDs3J_-3">
          <mxGeometry relative="1" as="geometry">
            <mxPoint x="97.5" y="360" as="targetPoint" />
          </mxGeometry>
        </mxCell>
        <mxCell id="KY_1HDdjG_0bhDGDs3J_-11" style="edgeStyle=orthogonalEdgeStyle;rounded=0;orthogonalLoop=1;jettySize=auto;html=1;exitX=0.5;exitY=1;exitDx=0;exitDy=0;entryX=0.5;entryY=0;entryDx=0;entryDy=0;" edge="1" parent="WIyWlLk6GJQsqaUBKTNV-1" source="KY_1HDdjG_0bhDGDs3J_-3" target="KY_1HDdjG_0bhDGDs3J_-10">
          <mxGeometry relative="1" as="geometry" />
        </mxCell>
        <mxCell id="KY_1HDdjG_0bhDGDs3J_-3" value="void hangman(" style="shape=process;whiteSpace=wrap;html=1;backgroundOutline=1;" vertex="1" parent="WIyWlLk6GJQsqaUBKTNV-1">
          <mxGeometry x="37.5" y="300" width="120" height="60" as="geometry" />
        </mxCell>
        <mxCell id="KY_1HDdjG_0bhDGDs3J_-10" value="End" style="ellipse;whiteSpace=wrap;html=1;" vertex="1" parent="WIyWlLk6GJQsqaUBKTNV-1">
          <mxGeometry x="62.5" y="380" width="70" height="60" as="geometry" />
        </mxCell>
        <mxCell id="KY_1HDdjG_0bhDGDs3J_-13" style="edgeStyle=orthogonalEdgeStyle;rounded=0;orthogonalLoop=1;jettySize=auto;html=1;exitX=0.5;exitY=1;exitDx=0;exitDy=0;entryX=0.5;entryY=0;entryDx=0;entryDy=0;" edge="1" parent="WIyWlLk6GJQsqaUBKTNV-1" source="KY_1HDdjG_0bhDGDs3J_-12" target="KY_1HDdjG_0bhDGDs3J_-14">
          <mxGeometry relative="1" as="geometry">
            <mxPoint x="440" y="140" as="targetPoint" />
          </mxGeometry>
        </mxCell>
        <mxCell id="KY_1HDdjG_0bhDGDs3J_-12" value="hangman" style="ellipse;whiteSpace=wrap;html=1;" vertex="1" parent="WIyWlLk6GJQsqaUBKTNV-1">
          <mxGeometry x="380" y="20" width="120" height="80" as="geometry" />
        </mxCell>
        <mxCell id="KY_1HDdjG_0bhDGDs3J_-23" style="edgeStyle=orthogonalEdgeStyle;rounded=0;orthogonalLoop=1;jettySize=auto;html=1;exitX=0.5;exitY=1;exitDx=0;exitDy=0;entryX=0.5;entryY=0;entryDx=0;entryDy=0;" edge="1" parent="WIyWlLk6GJQsqaUBKTNV-1" source="KY_1HDdjG_0bhDGDs3J_-14" target="KY_1HDdjG_0bhDGDs3J_-22">
          <mxGeometry relative="1" as="geometry" />
        </mxCell>
        <mxCell id="KY_1HDdjG_0bhDGDs3J_-14" value="input_word" style="shape=parallelogram;perimeter=parallelogramPerimeter;whiteSpace=wrap;html=1;fixedSize=1;" vertex="1" parent="WIyWlLk6GJQsqaUBKTNV-1">
          <mxGeometry x="380" y="130" width="120" height="60" as="geometry" />
        </mxCell>
        <mxCell id="KY_1HDdjG_0bhDGDs3J_-25" style="edgeStyle=orthogonalEdgeStyle;rounded=0;orthogonalLoop=1;jettySize=auto;html=1;exitX=0.5;exitY=1;exitDx=0;exitDy=0;entryX=0.5;entryY=0;entryDx=0;entryDy=0;" edge="1" parent="WIyWlLk6GJQsqaUBKTNV-1" source="KY_1HDdjG_0bhDGDs3J_-35" target="KY_1HDdjG_0bhDGDs3J_-19">
          <mxGeometry relative="1" as="geometry">
            <mxPoint x="440" y="490" as="sourcePoint" />
          </mxGeometry>
        </mxCell>
        <mxCell id="KY_1HDdjG_0bhDGDs3J_-26" value="T" style="edgeStyle=orthogonalEdgeStyle;rounded=0;orthogonalLoop=1;jettySize=auto;html=1;exitX=1;exitY=0.5;exitDx=0;exitDy=0;entryX=0;entryY=0.5;entryDx=0;entryDy=0;" edge="1" parent="WIyWlLk6GJQsqaUBKTNV-1" source="KY_1HDdjG_0bhDGDs3J_-16" target="KY_1HDdjG_0bhDGDs3J_-27">
          <mxGeometry relative="1" as="geometry">
            <mxPoint x="600" y="330" as="targetPoint" />
          </mxGeometry>
        </mxCell>
        <mxCell id="KY_1HDdjG_0bhDGDs3J_-34" value="F" style="edgeStyle=orthogonalEdgeStyle;rounded=0;orthogonalLoop=1;jettySize=auto;html=1;exitX=0.5;exitY=1;exitDx=0;exitDy=0;entryX=0.5;entryY=0;entryDx=0;entryDy=0;" edge="1" parent="WIyWlLk6GJQsqaUBKTNV-1" source="KY_1HDdjG_0bhDGDs3J_-16" target="KY_1HDdjG_0bhDGDs3J_-35">
          <mxGeometry relative="1" as="geometry">
            <mxPoint x="440" y="400" as="targetPoint" />
          </mxGeometry>
        </mxCell>
        <mxCell id="KY_1HDdjG_0bhDGDs3J_-16" value="if(input_word == answer_word[i])" style="rhombus;whiteSpace=wrap;html=1;" vertex="1" parent="WIyWlLk6GJQsqaUBKTNV-1">
          <mxGeometry x="330" y="290" width="220" height="80" as="geometry" />
        </mxCell>
        <mxCell id="KY_1HDdjG_0bhDGDs3J_-28" style="edgeStyle=orthogonalEdgeStyle;rounded=0;orthogonalLoop=1;jettySize=auto;html=1;exitX=1;exitY=0.5;exitDx=0;exitDy=0;" edge="1" parent="WIyWlLk6GJQsqaUBKTNV-1" source="KY_1HDdjG_0bhDGDs3J_-19">
          <mxGeometry relative="1" as="geometry">
            <mxPoint x="590" y="540" as="targetPoint" />
          </mxGeometry>
        </mxCell>
        <mxCell id="KY_1HDdjG_0bhDGDs3J_-40" value="F" style="edgeStyle=orthogonalEdgeStyle;rounded=0;orthogonalLoop=1;jettySize=auto;html=1;exitX=0.5;exitY=1;exitDx=0;exitDy=0;entryX=0.5;entryY=1;entryDx=0;entryDy=0;" edge="1" parent="WIyWlLk6GJQsqaUBKTNV-1" source="KY_1HDdjG_0bhDGDs3J_-19" target="KY_1HDdjG_0bhDGDs3J_-39">
          <mxGeometry relative="1" as="geometry" />
        </mxCell>
        <mxCell id="KY_1HDdjG_0bhDGDs3J_-19" value="if(input_word != answer_word)" style="rhombus;whiteSpace=wrap;html=1;" vertex="1" parent="WIyWlLk6GJQsqaUBKTNV-1">
          <mxGeometry x="340" y="500" width="200" height="80" as="geometry" />
        </mxCell>
        <mxCell id="KY_1HDdjG_0bhDGDs3J_-24" style="edgeStyle=orthogonalEdgeStyle;rounded=0;orthogonalLoop=1;jettySize=auto;html=1;exitX=0.5;exitY=1;exitDx=0;exitDy=0;entryX=0.5;entryY=0;entryDx=0;entryDy=0;" edge="1" parent="WIyWlLk6GJQsqaUBKTNV-1" source="KY_1HDdjG_0bhDGDs3J_-22" target="KY_1HDdjG_0bhDGDs3J_-16">
          <mxGeometry relative="1" as="geometry" />
        </mxCell>
        <mxCell id="KY_1HDdjG_0bhDGDs3J_-22" value="i = 0, i&amp;lt;str.legnth(answer);i++" style="shape=loopLimit;whiteSpace=wrap;html=1;" vertex="1" parent="WIyWlLk6GJQsqaUBKTNV-1">
          <mxGeometry x="275" y="220" width="330" height="40" as="geometry" />
        </mxCell>
        <mxCell id="KY_1HDdjG_0bhDGDs3J_-32" style="edgeStyle=orthogonalEdgeStyle;rounded=0;orthogonalLoop=1;jettySize=auto;html=1;exitX=0.5;exitY=1;exitDx=0;exitDy=0;entryX=0.5;entryY=0;entryDx=0;entryDy=0;" edge="1" parent="WIyWlLk6GJQsqaUBKTNV-1" source="KY_1HDdjG_0bhDGDs3J_-27" target="KY_1HDdjG_0bhDGDs3J_-31">
          <mxGeometry relative="1" as="geometry" />
        </mxCell>
        <mxCell id="KY_1HDdjG_0bhDGDs3J_-27" value="output[i] == input" style="rounded=0;whiteSpace=wrap;html=1;" vertex="1" parent="WIyWlLk6GJQsqaUBKTNV-1">
          <mxGeometry x="605" y="300" width="120" height="60" as="geometry" />
        </mxCell>
        <mxCell id="KY_1HDdjG_0bhDGDs3J_-36" style="edgeStyle=orthogonalEdgeStyle;rounded=0;orthogonalLoop=1;jettySize=auto;html=1;exitX=0.5;exitY=1;exitDx=0;exitDy=0;entryX=0.5;entryY=0;entryDx=0;entryDy=0;" edge="1" parent="WIyWlLk6GJQsqaUBKTNV-1" source="KY_1HDdjG_0bhDGDs3J_-29" target="KY_1HDdjG_0bhDGDs3J_-37">
          <mxGeometry relative="1" as="geometry">
            <mxPoint x="660" y="600" as="targetPoint" />
          </mxGeometry>
        </mxCell>
        <mxCell id="KY_1HDdjG_0bhDGDs3J_-29" value="Print &quot; There is not in alphabet in the word.!&quot;" style="rounded=0;whiteSpace=wrap;html=1;" vertex="1" parent="WIyWlLk6GJQsqaUBKTNV-1">
          <mxGeometry x="600" y="510" width="120" height="60" as="geometry" />
        </mxCell>
        <mxCell id="KY_1HDdjG_0bhDGDs3J_-31" value="count++" style="rounded=0;whiteSpace=wrap;html=1;" vertex="1" parent="WIyWlLk6GJQsqaUBKTNV-1">
          <mxGeometry x="605" y="390" width="120" height="60" as="geometry" />
        </mxCell>
        <mxCell id="KY_1HDdjG_0bhDGDs3J_-35" value="output[i] == &quot;*&quot;" style="rounded=0;whiteSpace=wrap;html=1;" vertex="1" parent="WIyWlLk6GJQsqaUBKTNV-1">
          <mxGeometry x="380" y="410" width="120" height="60" as="geometry" />
        </mxCell>
        <mxCell id="KY_1HDdjG_0bhDGDs3J_-37" value="count++" style="rounded=0;whiteSpace=wrap;html=1;" vertex="1" parent="WIyWlLk6GJQsqaUBKTNV-1">
          <mxGeometry x="600" y="600" width="120" height="60" as="geometry" />
        </mxCell>
        <mxCell id="KY_1HDdjG_0bhDGDs3J_-42" style="edgeStyle=orthogonalEdgeStyle;rounded=0;orthogonalLoop=1;jettySize=auto;html=1;exitX=0.5;exitY=0;exitDx=0;exitDy=0;entryX=0.5;entryY=0;entryDx=0;entryDy=0;" edge="1" parent="WIyWlLk6GJQsqaUBKTNV-1" source="KY_1HDdjG_0bhDGDs3J_-39" target="KY_1HDdjG_0bhDGDs3J_-41">
          <mxGeometry relative="1" as="geometry" />
        </mxCell>
        <mxCell id="KY_1HDdjG_0bhDGDs3J_-39" value="" style="shape=loopLimit;whiteSpace=wrap;html=1;rotation=-180;" vertex="1" parent="WIyWlLk6GJQsqaUBKTNV-1">
          <mxGeometry x="275" y="680" width="330" height="40" as="geometry" />
        </mxCell>
        <mxCell id="KY_1HDdjG_0bhDGDs3J_-44" style="edgeStyle=orthogonalEdgeStyle;rounded=0;orthogonalLoop=1;jettySize=auto;html=1;exitX=0.5;exitY=1;exitDx=0;exitDy=0;entryX=0.5;entryY=0;entryDx=0;entryDy=0;" edge="1" parent="WIyWlLk6GJQsqaUBKTNV-1" source="KY_1HDdjG_0bhDGDs3J_-41" target="KY_1HDdjG_0bhDGDs3J_-47">
          <mxGeometry relative="1" as="geometry">
            <mxPoint x="440" y="900" as="targetPoint" />
          </mxGeometry>
        </mxCell>
        <mxCell id="KY_1HDdjG_0bhDGDs3J_-46" style="edgeStyle=orthogonalEdgeStyle;rounded=0;orthogonalLoop=1;jettySize=auto;html=1;exitX=0;exitY=0.5;exitDx=0;exitDy=0;entryX=0.5;entryY=0;entryDx=0;entryDy=0;" edge="1" parent="WIyWlLk6GJQsqaUBKTNV-1" source="KY_1HDdjG_0bhDGDs3J_-41" target="KY_1HDdjG_0bhDGDs3J_-14">
          <mxGeometry relative="1" as="geometry">
            <Array as="points">
              <mxPoint x="230" y="805" />
              <mxPoint x="230" y="110" />
              <mxPoint x="440" y="110" />
            </Array>
          </mxGeometry>
        </mxCell>
        <mxCell id="KY_1HDdjG_0bhDGDs3J_-41" value="strcmp(input, answer) ==&amp;nbsp; 0" style="rhombus;whiteSpace=wrap;html=1;" vertex="1" parent="WIyWlLk6GJQsqaUBKTNV-1">
          <mxGeometry x="330" y="760" width="220" height="90" as="geometry" />
        </mxCell>
        <mxCell id="KY_1HDdjG_0bhDGDs3J_-45" value="T" style="text;html=1;align=center;verticalAlign=middle;resizable=0;points=[];autosize=1;strokeColor=none;fillColor=none;" vertex="1" parent="WIyWlLk6GJQsqaUBKTNV-1">
          <mxGeometry x="550" y="530" width="20" height="20" as="geometry" />
        </mxCell>
        <mxCell id="KY_1HDdjG_0bhDGDs3J_-47" value="break;" style="rounded=0;whiteSpace=wrap;html=1;" vertex="1" parent="WIyWlLk6GJQsqaUBKTNV-1">
          <mxGeometry x="380" y="880" width="120" height="60" as="geometry" />
        </mxCell>
      </root>
    </mxGraphModel>
  </diagram>
</mxfile>
